<?xml version="1.0" standalone="no"?>
<!DOCTYPE svg PUBLIC "-//W3C//DTD SVG 20010904//EN"
 "http://www.w3.org/TR/2001/REC-SVG-20010904/DTD/svg10.dtd">
<svg version="1.0" xmlns="http://www.w3.org/2000/svg"
 width="8192.000000pt" height="8192.000000pt" viewBox="0 0 8192.000000 8192.000000"
 preserveAspectRatio="xMidYMid meet">
<metadata>
Created by potrace 1.16, written by Peter Selinger 2001-2019
</metadata>
<g transform="translate(0.000000,8192.000000) scale(0.100000,-0.100000)"
fill="#000000" stroke="none">
<path d="M41160 62589 c-1255 -67 -2467 -383 -3570 -929 -985 -489 -1815
-1098 -2579 -1895 -768 -800 -1416 -1788 -1831 -2795 -24 -58 -45 -107 -46
-108 -1 -2 -40 10 -86 28 -399 154 -942 312 -1393 404 -608 124 -1223 186
-1855 186 -1146 0 -2222 -200 -3315 -615 -303 -115 -803 -350 -1120 -525
-1950 -1081 -3450 -2844 -4197 -4933 -293 -822 -464 -1666 -518 -2556 -13
-224 -13 -847 0 -1072 89 -1494 524 -2901 1294 -4189 109 -182 350 -543 482
-720 889 -1198 2049 -2161 3379 -2805 1004 -487 2079 -783 3195 -880 96 -8
209 -23 250 -32 70 -16 356 -17 4402 -20 l4327 -3 -38 107 c-22 60 -516 1411
-1099 3003 -583 1592 -1093 2999 -1135 3125 -292 886 -458 1741 -508 2617 -15
269 -7 921 15 1158 9 96 25 247 36 335 366 2917 2303 5115 5045 5724 965 215
2020 223 2990 25 2146 -440 3860 -1877 4692 -3934 658 -1626 716 -3518 167
-5460 -66 -234 -218 -693 -303 -915 -34 -88 -576 -1424 -1205 -2970 l-1143
-2810 2836 -5 c2558 -5 2852 -7 3001 -22 588 -60 1296 -47 1960 38 1594 201
3090 815 4383 1797 495 376 992 844 1398 1318 937 1091 1597 2366 1944 3758
100 401 182 876 224 1301 32 323 41 522 41 915 0 392 -9 591 -41 915 -138
1406 -595 2745 -1351 3955 -671 1073 -1602 2033 -2658 2741 -1098 736 -2317
1220 -3610 1433 -980 161 -2019 161 -3000 0 -174 -29 -555 -104 -585 -116 -11
-3 -29 27 -67 108 -28 63 -100 209 -158 324 -634 1245 -1547 2330 -2670 3174
-1364 1025 -2979 1645 -4680 1795 -392 35 -926 45 -1300 25z"/>
<path d="M41575 53709 c-1467 -112 -2789 -808 -3698 -1946 -428 -537 -744
-1148 -932 -1804 -290 -1011 -267 -2094 65 -3091 567 -1699 1968 -2985 3715
-3408 407 -99 766 -140 1220 -140 283 0 445 10 683 41 1980 257 3650 1645
4266 3547 492 1520 262 3186 -624 4507 -315 469 -728 907 -1180 1249 -276 210
-533 368 -845 521 -576 283 -1113 437 -1775 510 -173 19 -717 28 -895 14z
m125 -2295 c0 -9 12 -14 34 -14 37 0 46 -15 46 -77 0 -25 5 -32 23 -35 12 -2
26 -13 32 -25 11 -27 17 -28 53 -9 15 7 42 17 60 21 29 6 34 4 39 -14 7 -26 9
-26 58 4 22 13 47 25 55 25 8 0 37 -16 64 -35 27 -19 60 -35 74 -35 23 0 24
-3 17 -37 -10 -59 -46 -116 -82 -133 -18 -8 -33 -17 -33 -20 0 -3 14 -29 30
-57 25 -44 35 -53 59 -53 34 0 61 -28 70 -71 5 -24 13 -33 30 -36 13 -2 39
-12 56 -23 39 -24 61 -25 108 -5 45 19 77 19 77 2 0 -27 41 -52 93 -57 43 -4
53 -9 55 -26 2 -14 -7 -29 -24 -43 -22 -17 -40 -21 -106 -21 -46 0 -93 -6
-114 -15 l-35 -14 21 -21 c11 -11 20 -33 20 -48 0 -31 8 -27 -133 -67 -56 -16
-57 -17 -42 -38 24 -35 19 -57 -13 -57 -40 0 -68 24 -88 75 -13 36 -21 45 -41
45 -23 0 -23 -1 -9 -22 26 -37 15 -100 -20 -121 -8 -4 -14 -25 -14 -46 0 -85
-97 -191 -175 -191 -18 0 -37 -6 -42 -12 -25 -32 -55 -140 -63 -227 -9 -107
-15 -127 -37 -135 -12 -5 -10 -14 13 -54 64 -110 143 -196 239 -262 28 -18 51
-34 53 -35 1 -1 -5 -16 -14 -34 -19 -37 -13 -80 15 -127 20 -33 61 -69 322
-285 215 -179 295 -254 375 -353 94 -117 154 -246 203 -439 26 -104 52 -180
76 -225 33 -61 38 -84 61 -247 27 -197 31 -268 20 -304 -6 -17 -11 -20 -19
-12 -13 13 -37 14 -56 2 -11 -7 -9 -13 8 -30 25 -25 28 -66 6 -79 -13 -7 -14
-14 -5 -36 11 -29 14 -156 4 -192 -3 -11 -18 -25 -33 -31 -20 -7 -32 -22 -41
-49 -17 -53 -38 -74 -72 -74 -30 0 -68 -30 -68 -54 0 -23 -58 -65 -107 -77
-52 -14 -103 -53 -103 -79 0 -14 -16 -22 -72 -35 -114 -27 -331 -95 -355 -110
-11 -8 -27 -31 -33 -52 -15 -47 -37 -73 -61 -73 -16 0 -17 -4 -8 -27 11 -29 0
-43 -33 -43 -16 0 -16 -3 2 -32 29 -47 27 -86 -5 -94 -42 -10 -75 5 -134 60
-31 29 -67 59 -81 66 l-25 13 28 -36 c33 -44 57 -107 57 -152 0 -33 0 -33
-117 -76 -97 -36 -119 -48 -132 -72 -71 -131 -135 -177 -247 -177 -35 0 -64 2
-64 5 0 2 9 19 20 37 26 43 25 56 -4 60 l-24 3 49 200 c54 225 57 253 30 286
-19 23 -20 23 -33 6 -19 -26 -59 -18 -75 13 -46 94 -52 120 -30 137 6 6 54 25
105 43 85 30 91 34 77 50 -37 41 -7 86 50 77 22 -4 56 1 92 14 74 25 152 25
185 0 21 -17 29 -18 61 -8 31 10 37 16 37 40 0 24 -3 27 -23 22 -34 -9 -76 28
-83 75 -4 26 -13 41 -29 48 -31 14 -37 47 -15 75 16 19 22 21 47 11 25 -9 31
-8 46 12 23 30 78 45 120 33 17 -5 33 -9 34 -9 1 0 3 19 5 43 l3 42 51 6 c129
16 255 80 309 157 32 47 38 99 21 207 -7 44 -5 54 17 86 40 59 41 72 7 149
-17 39 -30 79 -28 88 2 9 -6 22 -17 27 -30 16 -49 64 -49 126 -1 63 14 89 50
89 23 0 24 4 24 58 0 33 -7 81 -15 108 -8 27 -15 50 -15 52 0 1 8 2 17 2 20 0
53 28 53 46 0 7 -38 45 -85 85 -75 63 -85 75 -85 104 0 36 41 80 86 91 13 3
24 9 24 13 0 4 -40 30 -89 59 -85 49 -93 52 -152 49 -60 -2 -63 -1 -81 29 -10
17 -21 59 -24 93 -9 84 -33 115 -132 174 -65 38 -87 56 -98 84 -8 19 -53 93
-100 165 -63 95 -98 138 -132 161 -90 62 -112 87 -112 122 0 31 -5 35 -78 73
-42 22 -106 49 -141 58 -52 15 -65 23 -73 45 -6 17 -22 32 -49 42 -21 8 -41
22 -44 30 -9 21 37 100 63 112 17 7 22 16 18 30 -26 100 -23 102 98 70 118
-30 113 -30 121 -5 3 11 15 20 25 20 13 0 22 11 29 38 15 51 15 50 -21 54 -31
3 -33 5 -39 52 -6 52 -26 76 -66 76 -34 0 -32 53 5 89 l27 27 -41 27 c-58 38
-68 40 -107 24 -24 -11 -44 -30 -63 -64 -15 -26 -28 -49 -29 -51 -1 -1 -35 13
-75 32 -40 19 -97 40 -126 46 -60 13 -88 39 -138 134 l-29 54 22 52 c15 34 21
66 19 97 l-3 45 -26 -20 c-67 -53 -116 -31 -126 58 -5 48 -11 60 -48 96 -77
74 -78 93 -18 176 19 26 39 64 44 83 20 73 64 67 176 -26 l72 -60 53 66 c44
56 53 63 59 47 4 -11 20 -29 36 -42 l28 -22 3 36 c3 33 6 36 25 30 32 -10 73
-43 88 -70 7 -13 18 -24 25 -24 20 0 54 50 67 97 12 45 19 49 61 33 20 -7 26
-17 26 -39 l0 -30 76 31 c42 17 78 37 81 45 3 7 -2 25 -12 39 -9 14 -15 27
-13 28 2 1 28 15 59 29 32 15 77 45 100 66 32 28 47 36 57 29 6 -6 12 -17 12
-24z"/>
<path d="M20720 36078 c0 -7 346 -1217 769 -2688 l769 -2675 960 -3 c909 -2
961 -1 966 15 41 139 1526 5346 1526 5353 0 7 -255 10 -753 10 l-753 0 -167
-697 c-92 -384 -264 -1103 -382 -1598 -255 -1061 -364 -1532 -372 -1598 -3
-27 -10 -46 -17 -44 -5 2 -21 48 -33 103 -76 330 -902 3760 -919 3817 -5 16
-52 17 -800 17 -629 0 -794 -3 -794 -12z"/>
<path d="M27660 33400 l0 -2690 705 0 705 0 0 2690 0 2690 -705 0 -705 0 0
-2690z"/>
<path d="M31280 33400 l0 -2690 1850 0 1850 0 0 660 0 660 -1145 0 -1145 0 0
390 0 390 815 0 815 0 0 610 0 610 -815 0 -815 0 0 370 0 370 1130 0 1130 0 0
660 0 660 -1835 0 -1835 0 0 -2690z"/>
<path d="M36970 35430 l0 -660 700 0 700 0 0 -2030 0 -2030 700 0 700 0 0
2030 0 2030 700 0 700 0 0 660 0 660 -2100 0 -2100 0 0 -660z"/>
<path d="M43240 33400 l0 -2690 696 0 695 0 -3 1395 c-2 767 0 1395 3 1395 3
0 403 -628 889 -1395 l884 -1395 713 0 713 0 0 2690 0 2690 -696 0 -695 0 3
-1400 c2 -770 -1 -1399 -5 -1397 -4 1 -403 630 -886 1397 l-877 1395 -717 3
-717 2 0 -2690z"/>
<path d="M51447 36083 c-3 -5 -377 -1207 -831 -2673 -455 -1466 -829 -2673
-832 -2683 -5 -16 33 -17 732 -15 l738 3 101 380 102 380 850 3 849 2 93 -337
c52 -186 100 -359 108 -385 l14 -48 744 0 c503 0 745 3 745 10 0 6 -371 1209
-825 2673 -454 1464 -828 2670 -831 2680 -5 16 -56 17 -879 17 -481 0 -876 -3
-878 -7z m886 -1565 c40 -169 188 -719 326 -1213 l148 -530 -495 -3 c-272 -1
-497 0 -499 2 -3 2 74 289 171 638 192 697 306 1124 306 1148 0 17 9 30 20 30
3 0 14 -33 23 -72z"/>
<path d="M56820 33400 l0 -2690 696 0 697 0 -6 1498 c-4 823 -9 1509 -13 1525
-5 20 -3 27 8 27 10 0 140 -293 394 -890 l379 -890 413 3 413 2 199 465 c260
609 557 1301 562 1305 2 2 2 -682 0 -1520 l-4 -1525 706 0 706 0 0 2690 0
2690 -762 -2 -762 -3 -496 -1060 c-296 -633 -501 -1060 -509 -1060 -8 0 -220
433 -520 1060 l-507 1060 -797 3 -797 2 0 -2690z"/>
<path d="M36830 28340 l0 -140 245 0 245 0 0 -665 0 -665 145 0 145 0 0 665 0
665 245 0 245 0 0 140 0 140 -635 0 -635 0 0 -140z"/>
<path d="M38940 27675 l0 -805 145 0 145 0 0 300 0 301 131 -3 131 -3 155
-297 155 -298 160 0 c133 0 159 2 155 14 -3 8 -82 156 -175 329 l-169 315 72
36 c91 45 164 121 196 204 28 72 38 256 19 341 -30 133 -117 243 -243 304
-125 61 -175 67 -546 67 l-331 0 0 -805z m705 500 c44 -23 67 -42 88 -77 53
-86 47 -228 -15 -302 -60 -73 -147 -95 -370 -96 l-118 0 0 256 0 256 178 -4
c176 -3 179 -3 237 -33z"/>
<path d="M41375 28463 c-14 -38 -535 -1581 -535 -1587 0 -3 67 -6 150 -6 l149
0 59 183 58 182 312 3 311 2 58 -182 59 -183 152 -3 c118 -2 152 0 152 10 -1
7 -121 369 -269 803 l-267 790 -191 3 c-175 2 -191 1 -198 -15z m295 -568 c56
-176 107 -339 115 -362 l14 -43 -231 0 c-215 0 -230 1 -225 18 36 124 223 719
224 714 1 -4 48 -151 103 -327z"/>
<path d="M42782 28468 c3 -7 133 -371 288 -808 l283 -795 187 3 187 3 277 782
c152 430 279 792 282 805 l6 22 -154 0 -154 0 -157 -467 c-87 -258 -184 -545
-215 -640 -32 -95 -60 -174 -63 -177 -2 -3 -102 284 -221 637 l-216 642 -167
3 c-132 2 -166 0 -163 -10z"/>
<path d="M45100 27675 l0 -805 545 0 545 0 0 140 0 140 -400 0 -400 0 0 205 0
205 295 0 295 0 0 135 0 135 -295 0 -295 0 0 185 0 185 390 0 390 0 0 140 0
140 -535 0 -535 0 0 -805z"/>
<path d="M47050 27675 l0 -805 505 0 505 0 0 140 0 140 -360 0 -360 0 0 665 0
665 -145 0 -145 0 0 -805z"/>
</g>
</svg>
