<?xml version="1.0" standalone="no"?>
<!DOCTYPE svg PUBLIC "-//W3C//DTD SVG 20010904//EN"
 "http://www.w3.org/TR/2001/REC-SVG-20010904/DTD/svg10.dtd">
<svg version="1.0" xmlns="http://www.w3.org/2000/svg"
 width="8250.000000pt" height="2133.000000pt" viewBox="0 0 8250.000000 2133.000000"
 preserveAspectRatio="xMidYMid meet">
<metadata>
Created by potrace 1.16, written by Peter Selinger 2001-2019
</metadata>
<g transform="translate(0.000000,2133.000000) scale(0.100000,-0.100000)"
fill="#000000" stroke="none">
<path d="M18795 21324 c-319 -12 -642 -40 -925 -80 -1603 -226 -3083 -908
-4320 -1989 -185 -162 -608 -588 -766 -770 -624 -723 -1079 -1460 -1437 -2327
l-15 -36 -129 47 c-1856 690 -3955 687 -5806 -8 -938 -353 -1772 -850 -2547
-1520 -171 -148 -622 -596 -772 -766 -1544 -1764 -2266 -4021 -2032 -6350 255
-2546 1690 -4841 3879 -6207 1100 -686 2375 -1110 3670 -1218 77 -7 172 -19
210 -28 63 -15 444 -16 3993 -19 2441 -2 3922 0 3922 6 0 5 -444 1222 -986
2703 -543 1481 -1019 2792 -1060 2913 -569 1711 -633 3395 -185 4878 241 795
638 1539 1149 2147 909 1085 2193 1791 3637 1999 1625 235 3230 -130 4473
-1016 770 -549 1384 -1268 1822 -2133 850 -1682 935 -3748 241 -5837 -109
-330 -154 -442 -1240 -3112 -567 -1393 -1031 -2537 -1031 -2542 0 -5 1152 -10
2578 -12 2455 -3 2585 -4 2747 -22 143 -16 248 -19 655 -19 495 -1 624 5 972
44 1610 183 3132 835 4378 1877 1621 1356 2668 3278 2919 5358 70 580 79 1224
25 1805 -165 1782 -907 3464 -2114 4795 -133 146 -457 471 -595 595 -1275
1152 -2904 1886 -4615 2079 -310 35 -428 42 -812 48 -664 10 -1164 -35 -1786
-159 -139 -27 -255 -48 -256 -47 -2 2 -27 56 -55 119 -71 157 -221 445 -321
620 -789 1375 -1940 2488 -3335 3227 -1033 547 -2159 864 -3345 943 -162 10
-646 19 -785 14z"/>
<path d="M19100 13274 c-1000 -51 -1952 -409 -2722 -1025 -809 -647 -1383
-1539 -1633 -2539 -216 -863 -182 -1790 96 -2633 299 -905 879 -1713 1644
-2287 699 -525 1511 -839 2390 -925 229 -23 661 -23 890 0 1107 108 2108 580
2890 1360 1123 1121 1602 2719 1285 4285 -308 1522 -1357 2797 -2800 3405
-409 172 -896 294 -1354 339 -159 16 -545 27 -686 20z m0 -2095 c0 -4 15 -9
33 -11 30 -3 32 -6 35 -45 2 -32 8 -44 23 -48 11 -4 25 -17 31 -29 10 -23 10
-23 46 -4 45 22 92 24 92 3 0 -20 20 -18 50 5 35 27 69 24 114 -10 22 -17 50
-30 63 -30 20 0 23 -4 17 -27 -12 -56 -46 -114 -75 -129 -16 -8 -29 -17 -29
-21 0 -3 11 -26 25 -50 17 -28 33 -43 46 -43 36 0 58 -19 69 -60 7 -24 17 -40
26 -40 8 0 34 -10 57 -21 41 -21 42 -21 95 -3 53 18 55 17 68 0 7 -11 15 -24
17 -29 2 -6 28 -14 58 -17 45 -4 55 -9 57 -26 6 -39 -32 -58 -116 -60 -42 -1
-90 -6 -105 -13 l-28 -11 23 -30 c31 -43 17 -60 -73 -86 -76 -22 -78 -24 -63
-71 6 -20 3 -23 -23 -23 -33 0 -66 29 -82 73 -10 26 -36 45 -47 35 -2 -3 2
-17 9 -32 17 -32 11 -69 -14 -92 -10 -9 -19 -30 -19 -45 0 -84 -92 -179 -174
-179 -19 0 -27 -9 -44 -52 -29 -74 -31 -82 -41 -182 -6 -62 -14 -93 -25 -101
-34 -26 107 -209 220 -285 27 -18 51 -35 53 -37 3 -2 -1 -9 -7 -15 -7 -7 -12
-33 -12 -58 0 -65 26 -95 210 -246 468 -383 542 -477 624 -799 20 -77 51 -171
70 -210 31 -61 38 -91 56 -230 30 -223 29 -308 -3 -276 -14 14 -44 14 -52 1
-3 -5 3 -18 15 -30 24 -24 25 -29 5 -58 -13 -17 -14 -29 -6 -59 23 -81 10
-170 -26 -184 -16 -6 -31 -26 -45 -59 -19 -45 -24 -51 -59 -56 -32 -6 -43 -13
-62 -48 -19 -35 -32 -45 -96 -70 -56 -22 -78 -37 -92 -61 -16 -27 -29 -34 -93
-49 -123 -29 -286 -83 -307 -102 -10 -9 -19 -23 -19 -30 0 -28 -24 -65 -46
-70 -19 -5 -22 -11 -18 -34 5 -22 2 -28 -15 -33 -20 -5 -20 -7 -6 -41 21 -50
19 -65 -10 -72 -42 -11 -74 4 -141 67 -68 63 -96 73 -50 19 23 -28 56 -114 56
-146 0 -7 -33 -24 -72 -39 -148 -56 -157 -61 -177 -107 -36 -82 -122 -138
-212 -138 -46 0 -55 12 -33 45 18 28 13 55 -11 55 -11 0 -14 7 -10 23 3 12 23
98 45 192 41 173 44 220 12 232 -9 4 -18 1 -20 -5 -2 -7 -17 -12 -33 -12 -21
0 -32 6 -38 23 -5 12 -17 41 -26 64 -22 53 -15 63 68 93 115 42 111 40 99 52
-17 17 -15 53 3 68 8 7 27 10 42 7 16 -3 59 4 96 15 74 22 127 20 156 -6 25
-23 93 -1 89 28 -2 15 -11 21 -33 23 -36 3 -65 35 -65 73 0 18 -7 30 -24 38
-29 13 -39 47 -19 67 16 17 49 20 57 6 4 -5 20 4 37 21 27 27 35 30 78 26 l49
-5 6 39 c5 33 10 38 32 38 14 0 53 7 87 16 172 44 270 155 239 270 -17 65 -15
91 13 132 31 46 31 66 -1 136 -14 31 -23 63 -20 71 3 8 -3 16 -14 20 -47 15
-68 147 -29 186 11 11 27 18 35 15 19 -7 19 83 0 146 l-13 45 28 10 c49 19 37
50 -43 117 -38 32 -72 64 -75 72 -10 27 8 65 38 82 66 37 67 35 -21 86 -75 43
-87 47 -126 41 -73 -11 -96 15 -109 124 -8 73 -24 93 -114 145 -58 33 -80 53
-94 81 -43 90 -167 265 -207 292 -76 51 -101 77 -104 108 -2 24 -13 36 -57 63
-30 18 -85 42 -123 54 -53 16 -72 27 -84 49 -9 15 -30 31 -47 36 -26 8 -30 14
-29 41 2 39 29 83 56 90 15 3 18 10 13 26 -14 43 -17 74 -7 80 5 3 40 -3 78
-14 76 -22 124 -26 124 -10 0 6 11 15 25 20 14 5 25 15 25 22 0 7 3 23 6 36 5
18 2 22 -19 22 -30 0 -51 23 -43 48 9 26 -29 72 -60 72 -31 0 -32 26 -1 72
l24 34 -38 27 c-20 15 -45 27 -54 27 -32 0 -71 -29 -94 -72 -13 -23 -25 -44
-26 -45 -1 -2 -26 10 -56 26 -30 16 -76 35 -104 42 -72 17 -89 31 -134 107
l-41 68 20 39 c12 23 20 59 20 87 l0 48 -32 -20 c-64 -39 -108 -13 -108 63 0
34 -7 46 -50 88 -31 30 -50 57 -50 71 0 13 18 50 40 83 22 33 40 67 40 76 0 9
9 24 19 33 17 16 22 16 52 3 19 -9 59 -36 89 -61 30 -25 59 -46 65 -46 5 0 29
26 52 56 l42 55 15 -29 c25 -48 56 -51 56 -5 0 13 2 23 5 23 18 0 67 -34 89
-62 l25 -33 25 25 c14 14 31 43 38 65 11 31 18 39 33 37 38 -6 45 -12 45 -37
0 -23 3 -25 23 -19 46 14 127 53 127 61 0 5 -7 19 -16 31 -9 13 -14 25 -13 26
2 2 32 18 65 35 34 18 75 46 90 62 26 28 30 29 41 13 7 -10 13 -21 13 -25z"/>
<path d="M50370 8740 l0 -2660 1830 0 1830 0 0 650 0 650 -1135 0 -1135 0 0
390 0 390 805 0 805 0 0 600 0 600 -805 0 -805 0 0 365 0 365 1115 0 1115 0 0
655 0 655 -1810 0 -1810 0 0 -2660z"/>
<path d="M55990 10745 l0 -655 690 0 690 0 0 -2005 0 -2005 690 0 690 0 0
2005 0 2005 690 0 690 0 0 655 0 655 -2070 0 -2070 0 0 -655z"/>
<path d="M39953 11348 c7 -24 350 -1219 763 -2655 l749 -2613 947 0 947 0 20
68 c60 201 1491 5224 1491 5232 0 6 -267 10 -743 10 l-742 0 -249 -1037 c-549
-2295 -632 -2646 -657 -2785 -13 -70 -25 -86 -34 -45 -43 192 -227 960 -542
2265 l-387 1602 -787 0 -788 0 12 -42z"/>
<path d="M46790 8735 l0 -2655 695 0 695 0 0 2655 0 2655 -695 0 -695 0 0
-2655z"/>
<path d="M62160 8735 l0 -2655 685 0 685 0 2 1382 3 1382 877 -1379 877 -1380
705 -3 706 -2 0 2655 0 2655 -685 0 -685 0 0 -1380 c0 -759 -3 -1380 -7 -1380
-5 1 -399 622 -878 1380 l-869 1380 -708 0 -708 0 0 -2655z"/>
<path d="M70256 11373 c-3 -10 -372 -1202 -821 -2650 -448 -1447 -815 -2634
-815 -2637 0 -3 326 -6 725 -6 l724 0 14 48 c8 26 54 197 103 380 l88 332 838
0 c461 0 838 -2 838 -4 0 -6 164 -597 191 -688 l20 -68 734 0 c492 0 735 3
735 10 0 9 -1448 4686 -1596 5158 l-45 142 -864 0 c-814 0 -864 -1 -869 -17z
m870 -1490 c23 -104 207 -794 328 -1231 80 -288 146 -528 146 -533 0 -5 -193
-9 -490 -9 -269 0 -490 3 -490 6 0 3 78 290 174 637 161 584 266 975 296 1105
13 57 26 67 36 25z"/>
<path d="M75560 8735 l0 -2655 686 0 686 0 -4 1505 c-2 983 0 1504 7 1502 5
-2 178 -398 384 -880 l374 -877 406 0 406 0 124 293 c68 160 231 540 361 842
131 303 243 567 251 588 7 20 15 37 19 37 3 0 3 -677 2 -1505 l-4 -1505 696 0
696 0 0 2655 0 2655 -752 0 -753 -1 -490 -1049 c-332 -711 -494 -1049 -504
-1048 -7 2 -239 474 -515 1050 l-501 1048 -787 0 -788 0 0 -2655z"/>
<path d="M55840 3760 l0 -140 240 0 240 0 0 -660 0 -660 145 0 145 0 0 660 0
660 245 0 245 0 0 140 0 140 -630 0 -630 0 0 -140z"/>
<path d="M57930 3101 l0 -801 145 0 145 0 0 295 0 296 127 -3 126 -3 151 -292
151 -292 158 -1 c86 0 157 3 157 6 0 3 -77 149 -171 325 -94 176 -170 321
-168 322 2 2 33 16 68 32 81 38 160 121 192 202 31 81 39 268 14 360 -44 162
-167 272 -363 325 -68 18 -116 21 -404 25 l-328 5 0 -801z m698 485 c84 -47
114 -106 113 -222 -1 -113 -49 -183 -152 -220 -30 -11 -95 -17 -206 -21 l-163
-6 0 252 0 253 178 -4 c175 -3 178 -3 230 -32z"/>
<path d="M64000 3100 l0 -800 535 0 535 0 0 135 0 135 -390 0 -390 0 0 210 0
210 290 0 290 0 0 130 0 130 -290 0 -290 0 0 185 0 185 385 0 385 0 0 140 0
140 -530 0 -530 0 0 -800z"/>
<path d="M60320 3858 c-37 -104 -520 -1542 -520 -1549 0 -5 68 -9 150 -9 107
0 150 3 150 12 0 6 25 89 55 185 l56 173 306 -2 307 -3 56 -180 56 -180 152
-3 c84 -1 152 0 152 4 0 3 -119 359 -265 791 -146 432 -265 787 -265 789 0 2
-85 4 -189 4 l-189 0 -12 -32z m351 -718 c34 -107 64 -201 66 -207 4 -10 -44
-13 -222 -13 -178 0 -226 3 -223 13 10 25 98 307 148 472 28 94 56 185 62 204
12 38 -3 77 169 -469z"/>
<path d="M61713 3878 c2 -7 129 -365 282 -795 l278 -783 186 0 186 0 278 788
c153 433 277 790 277 795 0 4 -68 6 -152 5 l-152 -3 -213 -634 c-117 -349
-215 -636 -216 -637 -1 -2 -98 285 -216 637 l-213 639 -165 0 c-128 0 -164 -3
-160 -12z"/>
<path d="M65930 3095 l0 -795 495 0 495 0 0 135 0 135 -350 0 -350 0 0 660 0
660 -145 0 -145 0 0 -795z"/>
</g>
</svg>
